<?xml version="1.0" encoding="UTF-8"?>
<svg id="Layer_1" data-name="Layer 1" xmlns="http://www.w3.org/2000/svg" xmlns:xlink="http://www.w3.org/1999/xlink" viewBox="0 0 576.67 86.67">
  <defs>
    <style>
      .cls-1 {
        fill: #f7b668;
      }

      .cls-2 {
        fill: #e9b56d;
      }

      .cls-3 {
        fill: #f3b66a;
      }

      .cls-4 {
        fill: #f4b669;
      }

      .cls-5 {
        fill: #f2b66a;
      }

      .cls-6 {
        fill: #e4b56f;
      }

      .cls-7 {
        fill: #efb56b;
      }

      .cls-8 {
        fill: #fff;
      }

      .cls-9 {
        fill: #f9b667;
      }

      .cls-10 {
        fill: #e6b56e;
      }

      .cls-11 {
        fill: #fab667;
      }

      .cls-12 {
        fill: none;
      }

      .cls-13 {
        fill: #ebb56c;
      }

      .cls-14 {
        fill: #feb665;
      }

      .cls-15 {
        fill: #f0b56a;
      }

      .cls-16 {
        fill: #ecb56c;
      }

      .cls-17 {
        fill: #720d28;
      }

      .cls-18 {
        fill: #eab56d;
      }

      .cls-19 {
        fill: #e5b56f;
      }

      .cls-20 {
        fill: #f5b669;
      }

      .cls-21 {
        fill: #ffb665;
      }

      .cls-22 {
        fill: #f8b668;
      }

      .cls-23 {
        fill: #e7b56e;
      }

      .cls-24 {
        fill: #fdb666;
      }

      .cls-25 {
        fill: #e8b56d;
      }

      .cls-26 {
        fill: #f6b668;
      }

      .cls-27 {
        fill: #eeb56b;
      }

      .cls-28 {
        fill: #fcb666;
      }

      .cls-29 {
        clip-path: url(#clippath);
      }

      .cls-30 {
        fill: #fbb667;
      }

      .cls-31 {
        fill: #edb56c;
      }
    </style>
    <clipPath id="clippath">
      <path class="cls-12" d="M81.59,46.77c1.62-3.26,2.54-6.93,2.54-10.81,0-4.43-1.19-8.58-3.26-12.15-4.2-7.24-12.03-12.11-21.01-12.11H18.55v7.33c0,5.03,4.08,9.11,9.11,9.11h34.42c4.16,0,7.53,3.37,7.53,7.53v.07c0,4.85-3.94,8.79-8.79,8.79h-13.05l6.78,10.51,5.98,9.35,2.77-4.4.17-.26,1.03-1.64c1.29-2.04,3.98-2.66,6.03-1.37,1.63,1.03,2.35,2.96,1.92,4.74-.1.52-.29,1.03-.59,1.51l-11,17.43h17.09l7.21-12.99c3.88-6.99,2.2-15.56-3.57-20.62Z"/>
    </clipPath>
  </defs>
  <g>
    <path class="cls-17" d="M61.05,80.24l-26.38-42.8h-17.26l23.64,38.37c1.75,2.84,4.86,4.58,8.2,4.58h11.56l.23-.14Z"/>
    <g class="cls-29">
      <polygon class="cls-21" points="35.91 11.69 18.55 23.98 18.55 11.69 35.91 11.69"/>
      <polygon class="cls-21" points="41.18 11.69 20.07 26.64 18.55 24.49 18.55 23.98 35.91 11.69 41.18 11.69"/>
      <polygon class="cls-14" points="46.46 11.69 21.83 29.13 20.07 26.64 41.18 11.69 46.46 11.69"/>
      <polygon class="cls-24" points="51.73 11.69 23.59 31.61 21.83 29.13 46.46 11.69 51.73 11.69"/>
      <polygon class="cls-28" points="57.01 11.69 25.36 34.1 23.59 31.61 51.73 11.69 57.01 11.69"/>
      <polygon class="cls-30" points="62.28 11.69 27.12 36.59 25.36 34.1 57.01 11.69 62.28 11.69"/>
      <polygon class="cls-11" points="67.56 11.69 28.88 39.08 27.12 36.59 62.28 11.69 67.56 11.69"/>
      <polygon class="cls-9" points="72.83 11.69 30.64 41.57 28.88 39.08 67.56 11.69 72.83 11.69"/>
      <polygon class="cls-22" points="73.54 11.69 75.06 13.84 32.4 44.05 30.64 41.57 72.83 11.69 73.54 11.69"/>
      <rect class="cls-1" x="28.48" y="28.67" width="52.27" height="3.05" transform="translate(-7.4 37.12) rotate(-35.31)"/>
      <rect class="cls-26" x="30.24" y="31.16" width="52.27" height="3.05" transform="translate(-8.52 38.59) rotate(-35.31)"/>
      <rect class="cls-20" x="32" y="33.64" width="52.27" height="3.05" transform="translate(-9.63 40.07) rotate(-35.31)"/>
      <rect class="cls-4" x="33.76" y="36.13" width="52.27" height="3.05" transform="translate(-10.75 41.54) rotate(-35.31)"/>
      <rect class="cls-3" x="35.52" y="38.62" width="52.27" height="3.05" transform="translate(-11.86 43.02) rotate(-35.31)"/>
      <rect class="cls-5" x="37.29" y="41.11" width="52.27" height="3.05" transform="translate(-12.97 44.5) rotate(-35.31)"/>
      <rect class="cls-15" x="39.05" y="43.6" width="52.27" height="3.05" transform="translate(-14.09 45.97) rotate(-35.31)"/>
      <polygon class="cls-7" points="87.4 31.26 89.04 33.58 89.04 33.83 46.5 63.96 44.74 61.47 87.4 31.26"/>
      <polygon class="cls-27" points="89.04 37.57 48.26 66.45 46.5 63.96 89.04 33.83 89.04 37.57"/>
      <polygon class="cls-31" points="89.04 41.3 50.02 68.93 48.26 66.45 89.04 37.57 89.04 41.3"/>
      <polygon class="cls-16" points="89.04 45.04 51.78 71.42 50.02 68.93 89.04 41.3 89.04 45.04"/>
      <polygon class="cls-13" points="89.04 48.77 53.55 73.91 51.78 71.42 89.04 45.04 89.04 48.77"/>
      <polygon class="cls-18" points="89.04 52.51 55.31 76.4 53.55 73.91 89.04 48.77 89.04 52.51"/>
      <polygon class="cls-2" points="89.04 56.24 57.07 78.88 55.31 76.4 89.04 52.51 89.04 56.24"/>
      <polygon class="cls-25" points="89.04 59.98 60.23 80.38 58.13 80.38 57.07 78.88 89.04 56.24 89.04 59.98"/>
      <polygon class="cls-23" points="89.04 63.72 65.51 80.38 60.23 80.38 89.04 59.98 89.04 63.72"/>
      <polygon class="cls-10" points="89.04 67.45 70.78 80.38 65.51 80.38 89.04 63.72 89.04 67.45"/>
      <polygon class="cls-19" points="89.04 71.19 76.06 80.38 70.78 80.38 89.04 67.45 89.04 71.19"/>
      <polygon class="cls-6" points="89.04 74.92 81.33 80.38 76.06 80.38 89.04 71.19 89.04 74.92"/>
      <polygon class="cls-6" points="81.33 80.38 89.04 74.92 89.04 80.38 81.33 80.38"/>
    </g>
  </g>
  <g>
    <path class="cls-8" d="M402.94,17.03h0c0-3.41-2.76-6.17-6.17-6.17h0c3.41,0,6.17-2.76,6.17-6.17h0c0,3.41,2.76,6.17,6.17,6.17h0c-3.41,0-6.17,2.76-6.17,6.17Z"/>
    <g>
      <path class="cls-8" d="M140.32,55.41c0,7.36-5.57,14.62-15.1,14.62h-17.96V22.03h13.11c8.28,0,13.88,5.96,13.88,12.33,0,5.18-3.6,8.64-5.39,8.64,5.39,0,11.47,4.94,11.47,12.42ZM114.77,29.35v11.97l5.96-.03c3.72.03,6.46-2.53,6.46-5.96s-2.98-5.99-6.37-5.99h-6.05ZM132.96,54.91c0-3.63-3.1-6.97-8.55-6.97l-9.65.03v14.71h9.77c4.32,0,8.43-3.13,8.43-7.77Z"/>
      <path class="cls-8" d="M177.76,70.04l-12.93-18.59h-5.9v18.59h-7.54l-.03-48.01h14.92c8.94,0,16.26,6.88,16.26,15.43,0,6.2-3.99,11.59-9.5,13.37l13.97,19.21h-9.26ZM166.47,45.2c4.53.03,8.31-3.63,8.31-7.92s-3.84-7.77-8.31-7.77h-7.57v15.7h7.57Z"/>
      <path class="cls-8" d="M227.38,62.74h-22.73l-3.28,7.3h-8.16l22.58-49h.45l22.58,49h-8.16l-3.28-7.3ZM224.46,56.28l-8.43-18.76-8.46,18.76h16.89Z"/>
      <path class="cls-8" d="M287.82,21.91v48.97h-.36l-30.71-32.08v31.3h-7.54V21.19h.39l30.65,32.02v-31.3h7.57Z"/>
      <path class="cls-8" d="M340.54,46.09c0,14.74-9.5,23.95-24.75,23.95h-13.67V22.03h13.67c15.25-.03,24.75,9.2,24.75,24.07ZM332.91,46.06c0-10.19-6.61-16.56-17.16-16.56h-6.14v33.03h6.23c10.48,0,17.07-6.34,17.07-16.47Z"/>
      <path class="cls-17" d="M388.96,22.03l-22.16,49h-.51l-22.07-49h8.01l14.3,32.5,14.36-32.5h8.07Z"/>
      <path class="cls-8" d="M399.36,22.03h7.54v48.01h-7.54V22.03Z"/>
      <path class="cls-8" d="M418.9,46.09c0-13.7,11.14-24.9,24.81-24.9s24.84,11.2,24.84,24.9-11.2,24.72-24.87,24.72-24.78-11.14-24.78-24.72ZM460.93,46.03c0-9.5-7.77-17.25-17.25-17.25s-17.19,7.74-17.19,17.25,7.71,17.16,17.19,17.16,17.25-7.71,17.25-17.16Z"/>
      <path class="cls-8" d="M506.91,70.04l-12.93-18.59h-5.9v18.59h-7.54l-.03-48.01h14.92c8.94,0,16.26,6.88,16.26,15.43,0,6.2-3.99,11.59-9.5,13.37l13.97,19.21h-9.26ZM495.62,45.2c4.53.03,8.31-3.63,8.31-7.92s-3.84-7.77-8.31-7.77h-7.57v15.7h7.57Z"/>
      <path class="cls-8" d="M556.53,62.74h-22.73l-3.28,7.3h-8.16l22.58-49h.45l22.58,49h-8.16l-3.28-7.3ZM553.62,56.28l-8.43-18.76-8.46,18.76h16.89Z"/>
    </g>
  </g>
</svg>