<svg width="32" height="32" viewBox="0 0 32 32" fill="none" xmlns="http://www.w3.org/2000/svg">
<rect width="32" height="32" rx="16" fill="white"/>
<path d="M19.3385 25.9567L11.2756 12.8716H6L13.2276 24.6007C13.7634 25.4701 14.7118 26.0001 15.7334 26.0001H19.2685L19.3389 25.9567H19.3385Z" fill="#FE6102"/>
<path d="M25.6192 15.724C26.1156 14.7287 26.3952 13.6062 26.3952 12.4184C26.3952 11.0648 26.0322 9.79569 25.3991 8.70334C24.1155 6.48932 21.72 5 18.9768 5H6.34692V7.24023C6.34692 8.77883 7.59415 10.0257 9.13235 10.0257H19.6561C20.928 10.0257 21.9593 11.057 21.9593 12.3289V12.3492C21.9593 13.8334 20.7563 15.0365 19.2721 15.0365H15.2824L17.3549 18.2497L19.1837 21.1075L20.0292 19.7625L20.0801 19.6816L20.3949 19.1806C20.788 18.5556 21.6132 18.3675 22.2382 18.7601C22.738 19.0742 22.9578 19.6648 22.8256 20.2084C22.7963 20.368 22.7372 20.5248 22.6453 20.6703L19.283 25.9998H24.5073L26.7108 22.029C27.8966 19.8924 27.3843 17.2728 25.6196 15.724H25.6192Z" fill="black"/>
</svg>
