<svg width="32" height="32" viewBox="0 0 32 32" fill="none" xmlns="http://www.w3.org/2000/svg">
<g clip-path="url(#clip0_2202_84)">
<path d="M19.99 31.9349L7.90632 12.3247H0L10.8317 29.9028C11.6347 31.2057 13.0561 32 14.587 32H19.8851L19.9906 31.9349H19.99Z" fill="#FE6102"/>
<path d="M29.4028 16.5993C30.1466 15.1076 30.5657 13.4254 30.5657 11.6453C30.5657 9.61672 30.0217 7.71472 29.0728 6.07766C27.1491 2.75957 23.5591 0.527588 19.4479 0.527588H0.52002V3.88495C0.52002 6.19078 2.38919 8.05937 4.69444 8.05937H20.4661C22.3722 8.05937 23.9178 9.605 23.9178 11.5111V11.5416C23.9178 13.7659 22.1148 15.5689 19.8905 15.5689H13.9114L17.0173 20.3845L19.758 24.6674L21.0252 22.6517L21.1014 22.5304L21.5733 21.7795C22.1623 20.8429 23.3991 20.561 24.3357 21.1494C25.0848 21.6201 25.4142 22.5052 25.2161 23.3199C25.1721 23.559 25.0836 23.7941 24.9459 24.0121L19.9069 31.9993H27.7364L31.0387 26.0483C32.8158 22.8463 32.048 18.9204 29.4034 16.5993H29.4028Z" fill="white"/>
</g>
<defs>
<clipPath id="clip0_2202_84">
<rect width="32" height="32" fill="white"/>
</clipPath>
</defs>
</svg>
