<?xml version="1.0" encoding="UTF-8"?>
<svg id="Layer_1" data-name="Layer 1" xmlns="http://www.w3.org/2000/svg" viewBox="0 0 1200 1200">
  <defs>
    <style>
      .cls-1 {
        fill: #fe6102;
      }
    </style>
  </defs>
  <path class="cls-1" d="M668.08,867.36l-206.16-334.57h-134.89l184.8,299.9c13.7,22.23,37.95,35.78,64.07,35.78h90.39l1.8-1.11Z"/>
  <path d="M828.67,605.73c12.69-25.45,19.84-54.15,19.84-84.52,0-34.61-9.28-67.06-25.47-94.99-32.82-56.61-94.07-94.69-164.21-94.69h-322.93v57.28c0,39.34,31.89,71.22,71.22,71.22h269.08c32.52,0,58.89,26.37,58.89,58.89v.52c0,37.95-30.76,68.71-68.71,68.71h-102.01l52.99,82.16,46.76,73.07,21.62-34.39,1.3-2.07,8.05-12.81c10.05-15.98,31.15-20.79,47.13-10.75,12.78,8.03,18.4,23.13,15.02,37.03-.75,4.08-2.26,8.09-4.61,11.81l-85.97,136.27h133.58l56.34-101.53c30.32-54.63,17.22-121.61-27.9-161.21Z"/>
</svg>